<?xml version="1.0" encoding="iso-8859-1"?>
<!-- Generator: Adobe Illustrator 16.0.0, SVG Export Plug-In . SVG Version: 6.00 Build 0)  -->
<!DOCTYPE svg PUBLIC "-//W3C//DTD SVG 1.1//EN" "http://www.w3.org/Graphics/SVG/1.1/DTD/svg11.dtd">
<svg version="1.1" id="Capa_1" xmlns="http://www.w3.org/2000/svg" xmlns:xlink="http://www.w3.org/1999/xlink" x="0px" y="0px"
	 width="24px" height="24px" viewBox="0 0 24 24" style="enable-background:new 0 0 24 24;" xml:space="preserve">
<g>
	<path d="M22,11c-0.118,0-0.23,0.015-0.344,0.035L18.615,6.17C18.854,5.84,19,5.438,19,5c0-1.104-0.896-2-2-2
		c-0.582,0-1.102,0.252-1.467,0.649l-4.539-1.702C10.966,0.868,10.086,0,9,0C7.896,0,7,0.896,7,2c0,0.418,0.129,0.805,0.348,1.126
		L3.404,9.041C3.274,9.014,3.139,9,3,9c-1.104,0-2,0.896-2,2c0,0.773,0.444,1.438,1.086,1.77L1.42,20.096C0.6,20.346,0,21.1,0,22
		c0,1.104,0.896,2,2,2c0.839,0,1.555-0.518,1.852-1.25h9.296C13.445,23.482,14.161,24,15,24c1.104,0,2-0.896,2-2
		c0-0.364-0.104-0.701-0.275-0.996l4.735-6.087C21.633,14.966,21.812,15,22,15c1.104,0,2-0.896,2-2C24,11.896,23.104,11,22,11z
		 M15,20c-0.839,0-1.555,0.518-1.852,1.25H3.852c-0.18-0.443-0.516-0.801-0.938-1.02l0.666-7.326C4.399,12.654,5,11.901,5,11
		c0-0.418-0.129-0.805-0.348-1.126l3.944-5.915C8.726,3.986,8.861,4,9,4c0.582,0,1.101-0.252,1.466-0.649l4.539,1.702
		C15.034,6.132,15.914,7,17,7c0.118,0,0.23-0.015,0.344-0.035l3.04,4.865C20.146,12.16,20,12.562,20,13
		c0,0.364,0.104,0.701,0.275,0.996l-4.735,6.087C15.367,20.034,15.188,20,15,20z"/>
</g>
<g>
</g>
<g>
</g>
<g>
</g>
<g>
</g>
<g>
</g>
<g>
</g>
<g>
</g>
<g>
</g>
<g>
</g>
<g>
</g>
<g>
</g>
<g>
</g>
<g>
</g>
<g>
</g>
<g>
</g>
</svg>
