<?xml version="1.0" encoding="iso-8859-1"?>
<!-- Generator: Adobe Illustrator 16.0.0, SVG Export Plug-In . SVG Version: 6.00 Build 0)  -->
<!DOCTYPE svg PUBLIC "-//W3C//DTD SVG 1.1//EN" "http://www.w3.org/Graphics/SVG/1.1/DTD/svg11.dtd">
<svg version="1.1" id="Capa_1" xmlns="http://www.w3.org/2000/svg" xmlns:xlink="http://www.w3.org/1999/xlink" x="0px" y="0px"
	 width="24px" height="24px" viewBox="0 0 24 24" style="enable-background:new 0 0 24 24;" xml:space="preserve">
<g>
	<path d="M5,0C2.2,0,0,2.2,0,5c0,4.3,5,12,5,12s5-7.8,5-12C10,2.2,7.8,0,5,0z M5,7C3.9,7,3,6.1,3,5s0.9-2,2-2s2,0.9,2,2S6.1,7,5,7z
		 M19,7c-2.8,0-5,2.2-5,5c0,4.3,5,12,5,12s5-7.8,5-12C24,9.2,21.8,7,19,7z M19,14c-1.1,0-2-0.9-2-2c0-1.1,0.9-2,2-2s2,0.9,2,2
		C21,13.1,20.1,14,19,14z"/>
</g>
<g>
</g>
<g>
</g>
<g>
</g>
<g>
</g>
<g>
</g>
<g>
</g>
<g>
</g>
<g>
</g>
<g>
</g>
<g>
</g>
<g>
</g>
<g>
</g>
<g>
</g>
<g>
</g>
<g>
</g>
</svg>
