<?xml version="1.0" encoding="iso-8859-1"?>
<!-- Generator: Adobe Illustrator 16.0.0, SVG Export Plug-In . SVG Version: 6.00 Build 0)  -->
<!DOCTYPE svg PUBLIC "-//W3C//DTD SVG 1.1//EN" "http://www.w3.org/Graphics/SVG/1.1/DTD/svg11.dtd">
<svg version="1.1" id="Capa_1" xmlns="http://www.w3.org/2000/svg" xmlns:xlink="http://www.w3.org/1999/xlink" x="0px" y="0px"
	 width="24px" height="24px" viewBox="0 0 24 24" style="enable-background:new 0 0 24 24;" xml:space="preserve">
<g>
	<path d="M24,2c0,1.104-0.896,2-2,2c-0.139,0-0.273-0.014-0.404-0.041l-1.943,2.915C19.871,7.195,20,7.582,20,8c0,1.104-0.896,2-2,2
		c-1.061,0-1.92-0.828-1.986-1.872l-5.5-1.833c-0.006,0.007-0.011,0.014-0.017,0.02l3.351,6.701C13.896,13.012,13.947,13,14,13
		c1.104,0,2,0.896,2,2s-0.896,2-2,2c-0.925,0-1.695-0.632-1.925-1.484l-4.338-0.543C7.395,15.583,6.75,16,6,16
		c-0.053,0-0.102-0.012-0.154-0.016l-2.35,4.699C3.806,21.037,4,21.494,4,22c0,1.104-0.896,2-2,2s-2-0.896-2-2s0.896-2,2-2
		c0.053,0,0.102,0.012,0.154,0.016l2.35-4.699C4.194,14.963,4,14.506,4,14c0-1.104,0.896-2,2-2c0.925,0,1.696,0.632,1.925,1.484
		l4.339,0.543c0.068-0.123,0.148-0.237,0.24-0.342L9.153,6.984C9.102,6.988,9.053,7,9,7C7.896,7,7,6.104,7,5s0.896-2,2-2
		c1.061,0,1.92,0.828,1.987,1.872l5.5,1.833C16.854,6.277,17.393,6,18,6c0.139,0,0.273,0.014,0.404,0.041l1.943-2.915
		C20.129,2.805,20,2.418,20,2c0-1.104,0.896-2,2-2S24,0.896,24,2z"/>
</g>
<g>
</g>
<g>
</g>
<g>
</g>
<g>
</g>
<g>
</g>
<g>
</g>
<g>
</g>
<g>
</g>
<g>
</g>
<g>
</g>
<g>
</g>
<g>
</g>
<g>
</g>
<g>
</g>
<g>
</g>
</svg>
